<?xml version="1.0" encoding="utf-8"?>
<!-- Generator: Adobe Illustrator 24.0.1, SVG Export Plug-In . SVG Version: 6.00 Build 0)  -->
<svg version="1.1" id="layer" xmlns="http://www.w3.org/2000/svg" xmlns:xlink="http://www.w3.org/1999/xlink" x="0px" y="0px"
	 viewBox="0 0 617 219" style="enable-background:new 0 0 617 219;" xml:space="preserve">
<style type="text/css">
	.st0{fill:#034EA2;}
	.st1{fill:#9DA844;}
	.st2{fill:#FFDA00;}
	.st3{fill:#EDC0BF;}
	.st4{fill:#D5D10F;}
	.st5{fill:#00B2E9;}
	.st6{fill:#F5E882;}
	.st7{fill:#ABE1FA;}
	.st8{fill:#F68B1F;}
	.st9{fill:#EE478A;}
	.st10{fill:#FFFFFF;}
	.st11{fill:#DCDDDE;}
</style>
<g>
	<g>
		<polygon class="st0" points="233.1,155.7 233.1,188.9 206.9,170.3 		"/>
	</g>
	<g>
		<polygon class="st1" points="180.9,155.7 180.9,188.9 207.1,170.3 		"/>
	</g>
	<g>
		<polygon class="st2" points="207.1,122.2 173.2,141.3 207.1,141.2 		"/>
	</g>
	<g>
		<polygon class="st3" points="207.1,122.2 240.9,141.3 207.1,141.2 		"/>
	</g>
	<g>
		<polygon class="st4" points="207.1,170.3 173.3,194 207.1,194 		"/>
	</g>
	<g>
		<polygon class="st5" points="207.1,170.3 240.9,194 207.1,194 		"/>
	</g>
	<g>
		<polygon class="st6" points="173.3,194 207,194 207,217.1 		"/>
	</g>
	<g>
		<polygon class="st7" points="240.8,194 207.1,194 207.1,217.1 		"/>
	</g>
	<g>
		<polygon class="st8" points="173.3,141.2 207.2,141.2 207.2,160 		"/>
	</g>
	<g>
		<polygon class="st9" points="241,141.2 207.1,141.2 207.1,160 		"/>
	</g>
	<g>
		<polygon class="st10" points="240.9,194.1 240.9,141.2 207.1,160 173.3,141.2 173.3,194.1 180.9,199.2 180.9,155.7 207.1,170.2 
			233.2,155.7 233.2,199.2 		"/>
	</g>
	<g>
		<path d="M340.5,174.9c2.9-1.1,5.3-2.9,7.2-5.3c2.3-2.9,3.5-6.4,3.5-10.4c0-2.6-0.5-5-1.3-7.1c-0.9-2.1-2.3-4-4-5.6
			c-1.8-1.5-3.9-2.7-6.4-3.6c-2.5-0.8-5.3-1.2-8.5-1.2h-21.9v58h7.7v-50.6H331c4.1,0,7.2,0.9,9.4,2.6c2.1,1.7,3.1,4.1,3.1,7.5
			c0,3.3-1,5.8-3.1,7.4c-2.1,1.8-5.3,2.6-9.4,2.6h-9.4v7.3h11.3l10.8,23.1h8.4L340.5,174.9z"/>
	</g>
	<g>
		<polygon points="357.7,141.8 357.7,149.2 375.2,149.2 375.2,199.7 382.8,199.7 382.8,149.2 400.3,149.2 400.3,141.8 		"/>
	</g>
	<g>
		<path d="M277.5,141.8h-6.4l-22.2,57.9h8.1l7-18.1l21.1,0.1l7,18h8L277.5,141.8z M266.5,174.7l7.8-20.6l8,20.6H266.5z"/>
	</g>
	<g>
		<path d="M161.8,177.2c-0.8-1.9-1.9-3.6-3.3-5.1c-1.4-1.4-3.1-2.6-5-3.6c-1.9-0.9-4.1-1.6-6.4-1.9l-10.4-1.3
			c-1.1-0.1-2.2-0.4-3.3-0.8c-1-0.3-1.8-0.8-2.5-1.4s-1.2-1.3-1.7-2.2c-0.4-0.9-0.6-2-0.6-3.4c0-1.5,0.3-2.7,0.8-3.7
			c0.6-1.1,1.4-2.1,2.3-2.8c1.1-1,2.5-1.7,4-2.1c1.7-0.5,3.4-0.7,5.2-0.7c2.3,0,4.4,0.4,6.3,1.1c1.8,0.7,3.2,1.7,4.2,3
			c0.8,0.9,1.3,1.8,1.7,2.7c0.4,1,0.7,2.1,0.9,3.3l0.2,1.5h7.7l-0.2-1.9c-0.2-2.2-0.7-4.1-1.5-5.8s-1.9-3.2-3.1-4.7
			c-1.7-2-4.1-3.6-7.1-4.8c-2.9-1.2-6-1.8-9.2-1.8c-2.8,0-5.5,0.5-8,1.3c-2.6,0.9-4.9,2.2-6.8,3.9c-1.5,1.4-2.8,3-3.8,4.8
			c-1.1,1.9-1.6,4.2-1.6,6.8c0,2.3,0.4,4.4,1.2,6.2c0.8,1.8,1.9,3.4,3.2,4.7c1.3,1.3,3,2.3,4.8,3.1c1.8,0.7,3.7,1.2,5.9,1.5
			l10.2,1.3c1.4,0.2,2.8,0.6,3.9,1.1c1.1,0.6,2.1,1.2,2.9,2c0.8,0.8,1.4,1.7,1.8,2.6c0.4,0.9,0.6,2,0.6,3c0,1.5-0.2,2.7-0.7,3.8
			s-1.2,2-2,2.7c-1.3,1.2-2.9,2.1-4.8,2.7c-2,0.6-4.2,0.9-6.4,0.9c-2.1,0-4.2-0.4-6-1s-3.4-1.6-4.7-2.9c-0.9-0.9-1.7-2-2.3-3.3
			c-0.6-1.3-1-2.6-1.2-4l-0.2-1.6H119l0.2,2c0.2,2.3,0.8,4.5,1.8,6.5c0.9,2,2.2,3.8,3.7,5.4c2,2.1,4.5,3.8,7.4,4.8
			c2.8,1,6,1.6,9.3,1.6c3.4,0,6.5-0.5,9.4-1.4c2.9-1,5.4-2.4,7.5-4.4c1.4-1.4,2.6-3,3.5-4.9s1.4-4.2,1.4-6.8
			C163,181.1,162.6,179.1,161.8,177.2"/>
	</g>
	<g>
		<polygon points="475.4,199.9 480.5,199.9 502.9,141.5 497.1,141.5 478,191.6 458.5,141.5 415.9,141.5 415.9,146.9 434.2,146.9 
			434.2,199.9 439.8,199.9 439.8,146.9 454.9,146.9 		"/>
	</g>
	<g>
		<polygon class="st11" points="233.1,155.7 233.1,199.3 240.9,194.1 240.9,141.2 207.1,160.1 207.1,170.2 		"/>
	</g>
	<g>
		<path d="M504.8,143v-1.2h6.4v1.2h-2.4v6.2h-1.5V143H504.8z M514.6,141.8l1.9,5.3l1.9-5.3h2.1v7.5h-1.3v-6l-2.1,6h-1.2l-2.1-6v6
			h-1.4v-7.5H514.6z"/>
	</g>
</g>
<g transform="matrix(2.0134 0 0 2.0134 -2.01 -1.85)">
	<path id="S" class="st0" d="M25.7,42.1c0.4,1,0.3,2.3,0.1,3.2c-0.4,1.4-1.3,2.9-4.1,2.9c-2.7,0-4.3-1.5-4.3-3.9v-4.1H6v3.3
		c0,9.5,7.5,12.4,15.5,12.4c7.7,0,14-2.6,15-9.7c0.5-3.7,0.1-6.1,0-7c-1.8-8.9-18-11.6-19.2-16.6c-0.2-0.7-0.2-1.5,0-2.2
		c0.3-1.4,1.2-2.9,3.9-2.9c2.5,0,4,1.5,4,3.9V24h10.6v-3c0-9.3-8.3-10.7-14.3-10.7c-7.6,0-13.8,2.5-14.9,9.5
		c-0.3,1.9-0.3,3.6,0.1,5.7C8.4,34.1,23.5,36.6,25.7,42.1"/>
	<path class="st0" d="M51.6,11.5l-7.9,42.6h11.5L61,15.5h0.2l5.7,38.7h11.4l-7.8-42.6L51.6,11.5z M115.9,11.5l-5.2,32.6h-0.2
		l-5.2-32.6H87.8l-0.9,42.6h10.7l0.3-38.3H98l7.1,38.3h10.8l7.1-38.3h0.2l0.3,38.3h10.7l-0.9-42.6H115.9z"/>
	<g transform="translate(138.47 -.08)">
		<path id="S_1_" class="st0" d="M26.3,42c0.4,1,0.3,2.3,0.1,3.2c-0.3,1.4-1.3,2.9-4.1,2.9c-2.7,0-4.3-1.5-4.3-3.9v-4.1H6.6v3.3
			c0,9.5,7.5,12.4,15.5,12.4c7.7,0,14-2.6,15.1-9.7c0.5-3.7,0.1-6.1,0-7c-1.8-8.9-18-11.6-19.2-16.6c-0.2-0.7-0.2-1.5,0-2.2
			c0.3-1.4,1.2-2.9,3.9-2.9c2.5,0,3.9,1.5,3.9,3.9v2.6h10.6v-3c0-9.3-8.3-10.7-14.3-10.7c-7.6,0-13.8,2.5-14.9,9.5
			c-0.3,1.9-0.3,3.6,0.1,5.7C9,34,24.1,36.5,26.3,42"/>
	</g>
	<path class="st0" d="M200,47.7c3,0,3.9-2,4.1-3.1c0.1-0.5,0.1-1.1,0.1-1.6V11.5H215V42c0,0.9,0,1.9-0.1,2.8
		c-0.8,8-7,10.5-14.9,10.5c-7.8,0-14.1-2.6-14.9-10.5c0-0.4-0.1-2-0.1-2.8V11.5h10.8V43c0,0.6,0,1.2,0.1,1.6
		C196.1,45.7,197,47.7,200,47.7 M252,11.5l0.6,33.4h-0.2l-9.8-33.4h-15.8v42.1h10.5L236.7,19h0.2l10.5,34.6h15.2V11.5H252z
		 M288.8,47.3c3.1,0,4.2-2,4.4-3.1c0.1-0.5,0.1-1.1,0.1-1.6v-6.2h-4.4v-6.2H304v11.4c0,0.8,0,1.4-0.1,2.8c-0.7,7.8-7.4,10.5-15,10.5
		c-7.5,0-14.3-2.8-15-10.5c-0.1-1.4-0.1-2-0.1-2.8V23.7c0-0.8,0.1-2.1,0.2-2.8c1-8,7.4-10.5,15-10.5c7.5,0,14.2,2.5,15,10.5
		c0.1,1.4,0.1,2.8,0.1,2.8v1.4h-10.7v-2.4c0,0,0-1-0.1-1.6c-0.2-0.9-1-3.1-4.3-3.1c-3.1,0-4,2.1-4.2,3.1c-0.1,0.6-0.2,1.3-0.2,2
		v19.5c0,0.5,0,1.1,0.1,1.6C284.6,45.4,285.7,47.3,288.8,47.3"/>
</g>
</svg>
