<?xml version="1.0" encoding="utf-8"?>
<!-- Generator: Adobe Illustrator 24.0.1, SVG Export Plug-In . SVG Version: 6.00 Build 0)  -->
<svg version="1.1" id="Calque_1" xmlns="http://www.w3.org/2000/svg" xmlns:xlink="http://www.w3.org/1999/xlink" x="0px" y="0px"
	 viewBox="0 0 1041.5 1022.3" style="enable-background:new 0 0 1041.5 1022.3;" xml:space="preserve">
<style type="text/css">
	.st0{fill:#77787A;}
	.st1{fill:#FFFFFF;}
	.st2{fill-opacity:0.1;}
	.st3{fill:url(#SVGID_1_);}
	.st4{fill:url(#SVGID_2_);}
	.st5{fill:url(#SVGID_3_);}
	.st6{fill:url(#SVGID_4_);}
	.st7{fill:url(#SVGID_5_);}
	.st8{fill:url(#SVGID_6_);}
	.st9{fill:url(#SVGID_7_);}
</style>
<g>
	<path class="st0" d="M160.3,971.7c-7.1,3.4-22.8,8.6-42.9,8.6c-45,0-74.3-30.5-74.3-76.2c0-46,31.5-79.6,80.2-79.6
		c16,0,30.2,4,37.6,8l-6.2,20.7c-6.5-3.4-16.7-7.1-31.5-7.1c-34.2,0-52.7,25.6-52.7,56.4c0,34.5,22.2,55.8,51.8,55.8
		c15.4,0,25.6-3.7,33.3-7.1L160.3,971.7L160.3,971.7z M192.1,758h27.1v93.4h0.6c4.3-7.7,11.1-14.8,19.4-19.4
		c8.4-4.9,18-7.4,27.8-7.4c20,0,52.1,12.3,52.1,63.5V977H292v-85.7c0-24.1-8.9-44.1-34.5-44.1c-17.6,0-31.1,12.3-36.4,26.8
		c-1.5,4-1.9,8-1.9,13V977h-27.1L192.1,758L192.1,758z M363.2,874.3c0-17.6-0.3-32.7-1.2-46.6h23.7l1.2,29.6h0.9
		c6.8-20,23.4-32.7,41.6-32.7c2.8,0,4.9,0.3,7.4,0.6v25.6c-2.8-0.6-5.6-0.6-9.3-0.6c-19.1,0-32.7,14.2-36.4,34.5
		c-0.6,3.7-0.9,8.3-0.9,12.6V977h-27.1V874.3z M596.1,901.1c0,55.2-38.6,79.3-74.3,79.3c-40.1,0-71.5-29.6-71.5-76.8
		c0-49.7,33-78.9,74-78.9C567.1,824.6,596.1,855.8,596.1,901.1L596.1,901.1z M478,902.6c0,32.7,18.5,57.4,45,57.4
		c25.9,0,45.3-24.4,45.3-58c0-25.3-12.6-57.1-44.7-57.1C491.8,845,478,874.6,478,902.6z M630.3,868.1c0-15.7-0.6-28.1-1.2-40.4h23.7
		l1.2,24.4h0.9c8.3-14.2,22.2-27.4,47.2-27.4c20,0,35.5,12.3,41.9,29.9h0.6c4.6-8.6,10.8-14.8,17-19.4c8.9-6.8,18.5-10.5,32.7-10.5
		c20,0,49.3,13,49.3,64.8V977h-26.5v-84.2c0-29-10.8-46-32.4-46c-15.7,0-27.4,11.4-32.4,24.4c-1.2,4-2.2,8.6-2.2,13.6V977h-26.5
		v-89.4c0-23.7-10.5-40.7-31.1-40.7c-16.7,0-29.3,13.6-33.6,27.1c-1.5,3.7-2.2,8.6-2.2,13.3V977h-26.5V868.1z M902.6,907.3
		c0.6,36.7,23.7,51.8,51.2,51.8c19.4,0,31.5-3.4,41.3-7.7l4.9,19.4c-9.6,4.3-26.2,9.6-50,9.6c-46,0-73.4-30.5-73.4-75.6
		s26.5-80.2,70-80.2c49,0,61.7,42.6,61.7,70c0,5.6-0.3,9.6-0.9,12.6L902.6,907.3L902.6,907.3z M982.2,887.8
		c0.3-17-7.1-43.8-37.6-43.8c-27.8,0-39.5,25-41.6,43.8H982.2L982.2,887.8z"/>
</g>
<circle class="st1" cx="521.6" cy="374.1" r="325.7"/>
<path class="st2" d="M728.8,433.3c0-114.5-92.8-207.3-207.3-207.3c-114.5,0-207.3,92.8-207.3,207.3h59.2
	c0-81.8,66.3-148.1,148.1-148.1s148.1,66.3,148.1,148.1"/>
<circle class="st2" cx="536.4" cy="415.6" r="112.5"/>
<linearGradient id="SVGID_1_" gradientUnits="userSpaceOnUse" x1="967.9453" y1="545.138" x2="967.9453" y2="544.377" gradientTransform="matrix(318.7238 0 0 -318.7238 -307985.6875 174001.5469)">
	<stop  offset="0" style="stop-color:#81B4E0"/>
	<stop  offset="1" style="stop-color:#0C5A94"/>
</linearGradient>
<circle class="st3" cx="521.6" cy="374.1" r="121.4"/>
<linearGradient id="SVGID_2_" gradientUnits="userSpaceOnUse" x1="766.1885" y1="-81.1689" x2="766.1885" y2="-150.4999" gradientTransform="matrix(3.8869 0 0 -3.8869 -2446.1626 -273.0378)">
	<stop  offset="0" style="stop-color:#F06B59"/>
	<stop  offset="1" style="stop-color:#DF2227"/>
</linearGradient>
<path class="st4" d="M817.7,226.1C736.2,62,537.1-4.9,373.1,76.7c-51.1,25.4-94.9,63.6-126.9,110.9l133.3,231
	c-24.5-78,18.8-161.1,96.8-185.7c13.7-4.3,28-6.6,42.4-6.8"/>
<linearGradient id="SVGID_3_" gradientUnits="userSpaceOnUse" x1="698.97" y1="-227.1505" x2="734.015" y2="-169.2505" gradientTransform="matrix(3.8869 0 0 -3.8869 -2446.1626 -273.0378)">
	<stop  offset="0" style="stop-color:#388B41"/>
	<stop  offset="1" style="stop-color:#4CB749"/>
</linearGradient>
<path class="st5" d="M246.2,187.6c-102,152.2-61.3,358.2,90.8,460.2c47.1,31.6,101.4,50.5,157.9,55.1l139.2-236.9
	c-52,63.1-145.4,72-208.4,20c-21.4-17.7-37.4-41-46.2-67.4"/>
<linearGradient id="SVGID_4_" gradientUnits="userSpaceOnUse" x1="816.37" y1="-233.3086" x2="779.0389" y2="-143.4096" gradientTransform="matrix(3.8869 0 0 -3.8869 -2446.1626 -273.0378)">
	<stop  offset="0" style="stop-color:#E4B022"/>
	<stop  offset="0.3" style="stop-color:#FCD209"/>
</linearGradient>
<path class="st6" d="M494.9,702.8c182.6,13.8,341.9-123.1,355.7-305.7c4.5-58.9-6.9-118-32.9-171H518.6
	c81.8,0.4,147.8,67,147.4,148.7c-0.2,33.1-11.4,65.2-31.9,91.1"/>
<linearGradient id="SVGID_5_" gradientUnits="userSpaceOnUse" x1="710.5726" y1="-175.642" x2="710.5726" y2="-114.694" gradientTransform="matrix(3.8869 0 0 -3.8869 -2446.1626 -273.0378)">
	<stop  offset="0" style="stop-color:#000000;stop-opacity:0.15"/>
	<stop  offset="0.3" style="stop-color:#000000;stop-opacity:6.000000e-02"/>
	<stop  offset="1" style="stop-color:#000000;stop-opacity:3.000000e-02"/>
</linearGradient>
<path class="st7" d="M246.2,187.6l133.3,231c-9.9-33.2-7.8-68.9,5.9-100.7L252.1,178.7"/>
<linearGradient id="SVGID_6_" gradientUnits="userSpaceOnUse" x1="794.6993" y1="-195.3232" x2="752.7983" y2="-237.9862" gradientTransform="matrix(3.8869 0 0 -3.8869 -2446.1626 -273.0378)">
	<stop  offset="0" style="stop-color:#000000;stop-opacity:0.15"/>
	<stop  offset="0.3" style="stop-color:#000000;stop-opacity:6.000000e-02"/>
	<stop  offset="1" style="stop-color:#000000;stop-opacity:3.000000e-02"/>
</linearGradient>
<path class="st8" d="M494.9,702.8l139.2-236.9c-22,26.2-52.3,44-85.9,50.3L489,702.8"/>
<linearGradient id="SVGID_7_" gradientUnits="userSpaceOnUse" x1="794.0914" y1="-207.597" x2="800.1863" y2="-147.413" gradientTransform="matrix(3.8869 0 0 -3.8869 -2446.1626 -273.0378)">
	<stop  offset="0" style="stop-color:#000000;stop-opacity:0.15"/>
	<stop  offset="0.3" style="stop-color:#000000;stop-opacity:6.000000e-02"/>
	<stop  offset="1" style="stop-color:#000000;stop-opacity:3.000000e-02"/>
</linearGradient>
<path class="st9" d="M817.7,226.1H518.6c45.1,0.2,87.6,20.9,115.5,56.3l189.5-47.4"/>
</svg>
