<?xml version="1.0" encoding="utf-8"?>
<!-- Generator: Adobe Illustrator 24.0.1, SVG Export Plug-In . SVG Version: 6.00 Build 0)  -->
<svg version="1.1" id="Calque_1" xmlns="http://www.w3.org/2000/svg" xmlns:xlink="http://www.w3.org/1999/xlink" x="0px" y="0px"
	 viewBox="0 0 117.1 83.9" style="enable-background:new 0 0 117.1 83.9;" xml:space="preserve">
<style type="text/css">
	.st0{clip-path:url(#SVGID_4_);}
	.st1{clip-path:url(#SVGID_5_);}
	.st2{fill-rule:evenodd;clip-rule:evenodd;}
	.st3{fill-rule:evenodd;clip-rule:evenodd;fill:#FF9900;}
	.st4{fill:#FFFFFF;}
</style>
<g>
	<g>
		<g>
			<defs>
				<path id="SVGID_1_" d="M26.5,56.5h4.3L30,59.1h-3.5v14.4h-3.2V59.1H21v-2.6h2.3c0-1,0-2,0-3.1c0-2.1,0.8-3.5,2.1-4.4
					c1.7-1.2,4.4-1.1,6.1-0.3l-0.7,2.6c-1.9-0.7-4.3-0.7-4.3,2.4C26.5,54.6,26.5,55.5,26.5,56.5L26.5,56.5z M55.8,56.1
					c4.7,0,7,3.6,7.1,8.4c0,0.6,0,0.5,0,1.1c-3.6,0-7.3,0-10.9,0c0.2,1.6,0.5,3,1.6,4c1.8,1.7,4.5,2.1,8,0.3l1,2.2
					C60,73.9,55,74.4,52,72.2c-1.9-1.4-3.2-4.1-3.2-7.3C48.7,59.4,51.8,56.1,55.8,56.1L55.8,56.1z M55.8,58.6c2.4,0,3.8,2.4,3.8,4.6
					H52C51.9,60.7,53.6,58.6,55.8,58.6L55.8,58.6z M39.7,56.5h2.7l0.3,2.1c2.2-2.5,4.8-3.1,6.8-2l-1.1,2.8c-2-1.1-3.7-0.1-5.5,1.8
					v12.3h-3.2V56.5L39.7,56.5z M33.6,56.5h3.2v17h-3.2V56.5L33.6,56.5z M35.2,49c1.1,0,2.1,0.9,2.1,2.1c0,1.1-0.9,2.1-2.1,2.1
					c-1.1,0-2.1-0.9-2.1-2.1C33.1,49.9,34.1,49,35.2,49L35.2,49z"/>
			</defs>
			<defs>
				<path id="SVGID_2_" d="M26.6,56.5h4.3l-0.8,2.6h-3.5v14.4h-3.2V59.1h-2.3v-2.6h2.3c0-1,0-2,0-3.1c0-2.1,0.8-3.5,2.1-4.4
					c1.7-1.2,4.4-1.1,6.1-0.3l-0.7,2.6c-1.9-0.7-4.3-0.7-4.3,2.4C26.6,54.6,26.6,55.5,26.6,56.5L26.6,56.5z M55.9,56.1
					c4.7,0,7,3.6,7.1,8.4c0,0.6,0,0.5,0,1.1c-3.6,0-7.3,0-10.9,0c0.2,1.6,0.5,3,1.6,4c1.8,1.7,4.5,2.1,8,0.3l1,2.2
					c-2.6,1.8-7.6,2.3-10.6,0.1c-1.9-1.4-3.2-4.1-3.2-7.3C48.8,59.4,51.9,56.1,55.9,56.1L55.9,56.1z M39.8,56.5h2.7l0.3,2.1
					c2.2-2.5,4.8-3.1,6.8-2l-1.1,2.8c-2-1.1-3.7-0.1-5.5,1.8v12.3h-3.2V56.5L39.8,56.5z M33.7,56.5h3.2v17h-3.2V56.5L33.7,56.5z
					 M35.3,49c1.1,0,2.1,0.9,2.1,2.1c0,1.1-0.9,2.1-2.1,2.1c-1.1,0-2.1-0.9-2.1-2.1C33.2,49.9,34.2,49,35.3,49L35.3,49z"/>
			</defs>
			<linearGradient id="SVGID_3_" gradientUnits="userSpaceOnUse" x1="29.0028" y1="78.2852" x2="52.0847" y2="50.7773">
				<stop  offset="0" style="stop-color:#FF9900"/>
				<stop  offset="1" style="stop-color:#FF2300"/>
			</linearGradient>
			<use xlink:href="#SVGID_1_"  style="overflow:visible;fill:url(#SVGID_3_);"/>
			<clipPath id="SVGID_4_">
				<use xlink:href="#SVGID_1_"  style="overflow:visible;"/>
			</clipPath>
			<clipPath id="SVGID_5_" class="st0">
				<use xlink:href="#SVGID_2_"  style="overflow:visible;"/>
			</clipPath>
			<g class="st1">
				<g>
					<g>
					</g>
				</g>
			</g>
		</g>
	</g>
	<path class="st2" d="M88.1,73.4l6.8-16.8h-3.3l-3,7.7c-0.6,1.6-1.2,3.2-1.7,4.8c-0.5-1.6-1.1-3.2-1.7-4.8l-3-7.7h-3.3l6.8,16.8
		H88.1L88.1,73.4z"/>
	<polygon class="st2" points="78,59.1 73.5,59.1 73.5,73.4 70.4,73.4 70.4,59.1 65.5,59.1 65.5,56.6 78.8,56.6 	"/>
	<g>
		<path id="path8" class="st3" d="M71.2,35.2c-6.3,4.6-15.3,7.1-23.1,7.1c-10.9,0-20.8-4-28.3-10.8c-0.6-0.5-0.1-1.3,0.6-0.8
			c8,4.7,18,7.5,28.3,7.5c6.9,0,14.6-1.4,21.6-4.4C71.4,33.3,72.3,34.4,71.2,35.2"/>
		<path id="path10" class="st3" d="M73.8,32.2c-0.8-1-5.3-0.5-7.3-0.2c-0.6,0.1-0.7-0.5-0.2-0.8c3.6-2.5,9.4-1.8,10.1-0.9
			c0.7,0.8-0.2,6.7-3.5,9.5c-0.5,0.4-1,0.2-0.8-0.4C72.9,37.5,74.6,33.3,73.8,32.2"/>
		<path id="path12" class="st2" d="M66.7,13.4V11c0-0.4,0.3-0.6,0.6-0.6h10.9c0.4,0,0.6,0.3,0.6,0.6v2c0,0.4-0.3,0.8-0.8,1.5
			l-5.7,8.1c2.1-0.1,4.3,0.3,6.2,1.3c0.4,0.2,0.5,0.6,0.6,1v2.6c0,0.4-0.4,0.8-0.8,0.6c-3.4-1.8-7.8-2-11.6,0
			c-0.4,0.2-0.8-0.2-0.8-0.6V25c0-0.4,0-1.1,0.4-1.7L73,14h-5.7C67,14,66.7,13.7,66.7,13.4"/>
		<path id="path14" class="st2" d="M26.7,28.6h-3.3c-0.3,0-0.6-0.3-0.6-0.6V11c0-0.3,0.3-0.6,0.6-0.6h3.1c0.3,0,0.6,0.3,0.6,0.6v2.2
			h0.1C28,11,29.6,10,31.6,10c2.1,0,3.4,1,4.3,3.2c0.8-2.2,2.6-3.2,4.6-3.2c1.4,0,2.9,0.6,3.9,1.9c1.1,1.4,0.8,3.5,0.8,5.4v10.8
			c0,0.3-0.3,0.6-0.6,0.6h-3.3c-0.3,0-0.6-0.3-0.6-0.6V19c0-0.7,0.1-2.5-0.1-3.2c-0.2-1.1-1-1.5-2-1.5c-0.8,0-1.6,0.5-2,1.4
			c-0.3,0.9-0.3,2.3-0.3,3.3v9c0,0.3-0.3,0.6-0.6,0.6h-3.3c-0.3,0-0.6-0.3-0.6-0.6v-9.1c0-1.9,0.3-4.7-2.1-4.7s-2.3,2.7-2.3,4.7V28
			C27.4,28.4,27.1,28.6,26.7,28.6"/>
		<path id="path16" class="st2" d="M88.3,10c4.9,0,7.6,4.2,7.6,9.6c0,5.2-3,9.4-7.6,9.4c-4.9,0-7.5-4.2-7.5-9.5
			C80.8,14.1,83.5,10,88.3,10 M88.3,13.5c-2.5,0-2.6,3.3-2.6,5.4s0,6.6,2.6,6.6s2.7-3.6,2.7-5.8c0-1.4-0.1-3.2-0.5-4.5
			C90.1,14,89.4,13.5,88.3,13.5"/>
		<path id="path18" class="st2" d="M102.3,28.6H99c-0.3,0-0.6-0.3-0.6-0.6V10.9c0-0.3,0.3-0.6,0.6-0.6h3.1c0.3,0,0.5,0.2,0.6,0.5
			v2.6h0.1c0.9-2.3,2.2-3.5,4.5-3.5c1.5,0,3,0.5,3.9,2c0.9,1.4,0.9,3.7,0.9,5.3V28c0,0.3-0.3,0.5-0.6,0.5h-3.3
			c-0.3,0-0.6-0.2-0.6-0.5v-9.3c0-1.9,0.2-4.6-2.1-4.6c-0.8,0-1.6,0.5-1.9,1.4c-0.5,1-0.5,2.1-0.5,3.2V28
			C103,28.4,102.7,28.6,102.3,28.6"/>
		<path id="path28" class="st2" d="M57.9,20.5c0,1.3,0,2.4-0.6,3.5c-0.5,0.9-1.4,1.5-2.3,1.5c-1.3,0-2-1-2-2.4c0-2.8,2.5-3.4,5-3.4
			L57.9,20.5 M61.3,28.6c-0.2,0.2-0.5,0.2-0.8,0.1c-1.1-0.9-1.3-1.3-1.9-2.2c-1.8,1.9-3.1,2.4-5.5,2.4c-2.8,0-5-1.7-5-5.2
			c0-2.7,1.5-4.5,3.6-5.4c1.8-0.8,4.3-0.9,6.3-1.2v-0.4c0-0.8,0.1-1.7-0.4-2.4c-0.4-0.6-1.2-0.9-1.9-0.9c-1.3,0-2.4,0.7-2.7,2
			c-0.1,0.3-0.3,0.6-0.6,0.6l-3.2-0.3c-0.3-0.1-0.6-0.3-0.5-0.7c0.7-3.9,4.3-5.1,7.4-5.1c1.6,0,3.7,0.4,5,1.7
			c1.6,1.5,1.5,3.5,1.5,5.7v5.2c0,1.6,0.6,2.2,1.3,3.1c0.2,0.3,0.3,0.7,0,0.9C63.2,27,62,28,61.3,28.6L61.3,28.6"/>
		<path id="path30" class="st2" d="M14.3,20.5c0,1.3,0,2.4-0.6,3.5c-0.5,0.9-1.4,1.5-2.3,1.5c-1.3,0-2-1-2-2.4c0-2.8,2.5-3.4,5-3.4
			L14.3,20.5 M17.6,28.6c-0.2,0.2-0.5,0.2-0.8,0.1c-1.1-0.9-1.3-1.3-1.9-2.2c-1.8,1.9-3.1,2.4-5.5,2.4c-2.8,0-5-1.7-5-5.2
			c0-2.7,1.5-4.5,3.6-5.4c1.8-0.8,4.3-0.9,6.3-1.2v-0.4c0-0.8,0.1-1.7-0.4-2.4c-0.4-0.6-1.2-0.9-1.9-0.9c-1.3,0-2.4,0.7-2.7,2
			C9.3,15.7,9,16,8.7,16l-3.2-0.3C5.2,15.6,4.9,15.4,5,15c0.7-3.9,4.3-5.1,7.4-5.1c1.6,0,3.7,0.4,5,1.7c1.6,1.5,1.5,3.5,1.5,5.7v5.2
			c0,1.6,0.6,2.2,1.3,3.1c0.2,0.3,0.3,0.7,0,0.9C19.5,27,18.3,28,17.6,28.6L17.6,28.6"/>
	</g>
</g>
<path class="st4" d="M56.1,58.5c2.4,0,3.8,2.4,3.8,4.6h-7.6C52.2,60.6,53.9,58.5,56.1,58.5L56.1,58.5z"/>
</svg>
