<?xml version="1.0" encoding="utf-8"?>
<!-- Generator: Adobe Illustrator 24.0.1, SVG Export Plug-In . SVG Version: 6.00 Build 0)  -->
<svg version="1.1" id="Capa_1" xmlns="http://www.w3.org/2000/svg" xmlns:xlink="http://www.w3.org/1999/xlink" x="0px" y="0px"
	 viewBox="0 0 32.5 70.6" style="enable-background:new 0 0 32.5 70.6;" xml:space="preserve">
<g>
	<path d="M16.6,2.6c-7.2,0-13,5.8-13,13l0,13c0,1.1,0.9,2,2,2s2-0.9,2-2l0-13c0-2.4,0.9-4.6,2.6-6.4c1.7-1.7,4-2.6,6.4-2.6
		s4.6,0.9,6.4,2.6c1.7,1.7,2.6,4,2.6,6.4l0,17c0,5-4,9-9,9c-1.1,0-2,0.9-2,2c0,1.1,0.9,2,2,2c3.6,0,6.8-1.5,9.2-3.8
		c2.4-2.4,3.8-5.6,3.8-9.2v-17c0-3.5-1.4-6.7-3.8-9.2C23.3,3.9,20,2.6,16.6,2.6z"/>
	<path d="M25.6,45.6v11c0,2.4-0.9,4.6-2.6,6.4c-1.7,1.7-4,2.6-6.4,2.6c-5,0-9-4-9-9l0-16c0-2.4,0.9-4.6,2.6-6.4
		c1.7-1.7,4-2.6,6.4-2.6c1.1,0,2-0.9,2-2c0-1.1-0.9-2-2-2c-7.2,0-13,5.8-13,13l0,16c0,3.5,1.4,6.7,3.8,9.2c2.5,2.5,5.7,3.8,9.2,3.8
		c3.5,0,6.7-1.4,9.2-3.8c2.5-2.5,3.8-5.7,3.8-9.2v-11c0-1.1-0.9-2-2-2S25.6,44.5,25.6,45.6z"/>
</g>
</svg>
