<?xml version="1.0" encoding="UTF-8" standalone="no"?>
<!-- Generator: Adobe Illustrator 24.0.1, SVG Export Plug-In . SVG Version: 6.00 Build 0)  -->

<svg
   xmlns:dc="http://purl.org/dc/elements/1.1/"
   xmlns:cc="http://creativecommons.org/ns#"
   xmlns:rdf="http://www.w3.org/1999/02/22-rdf-syntax-ns#"
   xmlns:svg="http://www.w3.org/2000/svg"
   xmlns="http://www.w3.org/2000/svg"
   xmlns:sodipodi="http://sodipodi.sourceforge.net/DTD/sodipodi-0.dtd"
   xmlns:inkscape="http://www.inkscape.org/namespaces/inkscape"
   version="1.1"
   id="Calque_1"
   x="0px"
   y="0px"
   viewBox="0 0 1048.2 1042.8"
   style="enable-background:new 0 0 1048.2 1042.8;"
   xml:space="preserve"
   sodipodi:docname="loader.svg"
   inkscape:version="0.92.4 5da689c313, 2019-01-14"><metadata
   id="metadata964"><rdf:RDF><cc:Work
       rdf:about=""><dc:format>image/svg+xml</dc:format><dc:type
         rdf:resource="http://purl.org/dc/dcmitype/StillImage" /><dc:title></dc:title></cc:Work></rdf:RDF></metadata><defs
   id="defs962" /><sodipodi:namedview
   pagecolor="#ffffff"
   bordercolor="#666666"
   borderopacity="1"
   objecttolerance="10"
   gridtolerance="10"
   guidetolerance="10"
   inkscape:pageopacity="0"
   inkscape:pageshadow="2"
   inkscape:window-width="1920"
   inkscape:window-height="1075"
   id="namedview960"
   showgrid="false"
   inkscape:zoom="0.81319521"
   inkscape:cx="524.09998"
   inkscape:cy="521.40002"
   inkscape:window-x="0"
   inkscape:window-y="4"
   inkscape:window-maximized="0"
   inkscape:current-layer="g952" />
<style
   type="text/css"
   id="style944">
	.st0{fill:#FFFFFF;}
</style>
<g
   id="Calque_1_1_">
	<g
   id="g954">
		<g
   id="g948">
			<path
   class="st0"
   d="M529.9,59.9c-261,0-472.6,211.6-472.6,472.6S268.9,1005,529.9,1005s472.6-211.6,472.6-472.6     S790.9,59.9,529.9,59.9z M529.9,829c-163.8,0-296.6-132.8-296.6-296.6s132.8-296.6,296.6-296.6s296.6,132.8,296.6,296.6     S693.7,829,529.9,829z"
   id="path946" />
		</g>
		<g
   id="g952">
			<path
   d="m 195.64592,812.17902 c -23.45837,0 -44.10978,-8.82196 -61.55319,-26.26538 -17.44342,-17.44341 -26.26537,-37.89431 -26.26537,-61.55319 0,-24.26038 8.82195,-45.11228 26.26537,-62.55569 17.44341,-17.44342 37.89432,-26.26537 61.55319,-26.26537 24.26038,0 45.11228,8.82195 62.55569,26.26537 17.44342,17.44341 26.26538,38.29531 26.26538,62.55569 0,23.45838 -8.82196,44.10978 -26.26538,61.55319 -17.44341,17.44342 -38.29531,26.26538 -62.55569,26.26538 z"
   id="path950"
   inkscape:connector-curvature="0"
   style="stroke-width:2.0049901" />
		</g>
	</g>
</g>
<g
   id="Calque_3">
</g>
<g
   id="Calque_2_1_">
</g>
</svg>