<?xml version="1.0" encoding="utf-8"?>
<!-- Generator: Adobe Illustrator 24.0.1, SVG Export Plug-In . SVG Version: 6.00 Build 0)  -->
<svg version="1.1" xmlns="http://www.w3.org/2000/svg" xmlns:xlink="http://www.w3.org/1999/xlink" x="0px" y="0px"
	 viewBox="0 0 5533.48 1574.91" style="enable-background:new 0 0 5533.48 1574.91;" xml:space="preserve">
<style type="text/css">
	.st0{fill:#FFFFFF;}
</style>
<g id="Calque_1">
	<g>
		<g>
			<g>
				<path d="M497.5,1128.38c-101.43,0-184.45-34.99-249.01-104.89c-64.6-69.94-96.86-156.23-96.86-258.93
					c0-102.66,32.26-188.99,96.86-258.93c64.56-69.9,147.58-104.89,249.01-104.89c100.78,0,183.64,35.14,248.51,105.36
					c64.87,70.29,97.36,156.42,97.36,258.47s-32.49,188.22-97.36,258.47S598.28,1128.38,497.5,1128.38z M344.38,926.63
					c37.8,42.53,88.86,63.79,153.11,63.79s114.97-21.26,152.11-63.79c37.18-42.53,55.75-96.55,55.75-162.07
					c0-66.14-18.57-120.47-55.75-162.99c-37.14-42.53-87.86-63.79-152.11-63.79c-64.91,0-116.08,21.26-153.57,63.79
					c-37.49,42.53-56.22,96.86-56.22,162.99C287.71,830.08,306.59,884.1,344.38,926.63z"/>
				<path d="M1255.37,410.19h136.08v708.73l-121.93,0.96l-7.54-49.14c-36.57,38.41-81.59,57.64-135.16,57.64
					c-64.25,0-116.85-23.46-157.8-70.4c-40.95-46.95-61.41-105.36-61.41-175.3s20.46-128.35,61.41-175.3
					c40.95-46.91,93.55-70.4,157.8-70.4c50.41,0,93.24,17.03,128.54,51.02V410.19z M1154.24,1007.42c22.69,0,42.99-6.77,60.95-20.3
					s31.34-31.68,40.18-54.33v-100.2c-8.84-22.65-22.38-40.91-40.64-54.79c-18.26-13.84-38.41-20.8-60.48-20.8
					c-32.76,0-59.37,12-79.82,35.91c-20.49,23.96-30.72,53.87-30.72,89.78c0,35.91,10.23,65.67,30.72,89.28
					C1094.87,995.61,1121.48,1007.42,1154.24,1007.42z"/>
				<path d="M1584.2,565.15c-20.8,0-38.91-7.54-54.33-22.65c-15.46-15.15-23.15-33.41-23.15-54.83c0-21.42,7.69-39.68,23.15-54.79
					c15.42-15.11,33.53-22.69,54.33-22.69c21.42,0,39.84,7.57,55.29,22.69c15.42,15.11,23.15,33.38,23.15,54.79
					c0,21.42-7.73,39.68-23.15,54.83C1624.04,557.62,1605.62,565.15,1584.2,565.15z M1515.22,1118.93V646.44h137.96v472.49H1515.22z
					"/>
				<path d="M1975.41,1128.38c-99.55,0-174.84-19.53-225.86-58.6l60.48-97.32c15.11,12.61,36.53,23.76,64.25,33.53
					s53.25,15.3,76.56,16.53c22.69,1.27,41.26-1.23,55.75-7.54s21.72-16.07,21.72-29.3c0-14.5-7.88-25.84-23.61-34.03
					c-15.76-8.19-40.64-17-74.67-26.45c-18.88-5.69-33.99-10.23-45.33-13.69c-11.34-3.46-25.22-9.31-41.6-17.5
					c-16.38-8.19-29.15-16.53-38.26-25.03c-9.15-8.54-17.19-19.69-24.11-33.57c-6.92-13.84-10.38-29.3-10.38-46.3
					c0-45.37,18.11-82.05,54.33-110.09c36.22-28.03,83.94-42.07,143.15-42.07c76.86,0,141.42,17.03,193.72,51.02l-64.25,88.82
					c-29.61-22.03-65.83-35.26-108.66-39.68c-21.42-2.5-40.14-0.92-56.22,4.73c-16.07,5.69-24.11,15.11-24.11,28.34
					c0,3.81,0.46,7.11,1.42,9.96c0.92,2.81,2.85,5.65,5.65,8.5c2.85,2.81,5.54,5.34,8.04,7.54c2.54,2.23,6.15,4.58,10.88,7.11
					c4.73,2.5,8.96,4.58,12.77,6.11c3.77,1.58,8.81,3.5,15.11,5.69c6.27,2.19,11.65,3.92,16.07,5.19
					c4.38,1.27,10.38,3.15,17.96,5.65c7.54,2.54,13.53,4.42,17.96,5.69c21.38,6.92,39.53,13.53,54.33,19.84
					c14.77,6.31,30.22,14.96,46.3,25.99c16.07,11.04,28.34,24.88,36.84,41.57c8.54,16.69,12.77,36.07,12.77,58.14
					c0,46.6-17,83.48-51.02,110.55C2079.34,1114.85,2033.35,1128.38,1975.41,1128.38z"/>
				<path d="M2514.03,636.98c63.64,0,116.08,23.49,157.34,70.4c41.26,46.95,61.91,105.36,61.91,175.3s-20.65,128.35-61.91,175.3
					c-41.26,46.95-93.71,70.4-157.34,70.4c-51.02,0-94.17-17.03-129.43-51.02v278.77l-136.08-0.96V646.44h136.08V688
					C2419.86,654.01,2463,636.98,2514.03,636.98z M2486.65,1007.42c32.72,0,59.37-11.96,79.82-35.91
					c20.49-23.92,30.72-53.52,30.72-88.82c0-35.26-10.23-65.06-30.72-89.28c-20.46-24.26-47.1-36.41-79.82-36.41
					c-22.69,0-43.33,7.11-61.91,21.26c-18.57,14.19-31.99,32.61-40.14,55.29v98.28c8.15,22.69,21.38,40.95,39.68,54.79
					C2442.55,1000.5,2463.31,1007.42,2486.65,1007.42z"/>
				<path d="M3011.09,1128.38c-62.37,0-109.32-15.61-140.81-46.8c-31.49-31.18-47.26-73.86-47.26-128.04V410.19h138v544.31
					c0,18.88,4.38,33.22,13.23,42.99c8.81,9.77,20.76,14.65,35.87,14.65c17.65,0,31.84-5.69,42.53-17l66.17,98.24
					C3091.72,1116.73,3055.81,1128.38,3011.09,1128.38z"/>
				<path d="M3361.65,636.98c64.91,0,116.85,15.11,155.92,45.37c39.07,30.22,58.6,75.59,58.6,136.08v300.5h-116.24l-6.61-46.3
					c-47.87,37.18-99.86,55.75-155.92,55.75c-45.33,0-82.21-13.07-110.55-39.22c-28.34-26.15-42.53-61.25-42.53-105.36
					c0-47.26,20.3-84.59,60.95-112.01c40.64-27.38,97.17-35.41,169.61-24.07l67.1,10.38v-40.64c0-25.8-8.96-45.03-26.92-57.64
					c-17.96-12.57-40.18-18.88-66.64-18.88c-45.99,0-84.71,18.88-116.24,56.68l-82.21-78.44c26.49-28.95,56.06-49.91,88.86-62.83
					C3271.55,643.44,3312.51,636.98,3361.65,636.98z M3287.94,976.23c0,15.76,5.34,28.18,16.07,37.34
					c10.73,9.11,24.57,13.69,41.6,13.69c32.11,0,64.25-14.19,96.36-42.53v-48.18l-37.8-7.57c-41.57-8.19-71.33-7.23-89.28,2.85
					C3296.93,941.9,3287.94,956.7,3287.94,976.23z"/>
				<path d="M4147.9,646.44l0.92,472.49c0,71.83-23.3,129.46-69.9,172.91c-46.64,43.49-108.7,65.21-186.18,65.21
					c-56.06,0-106.16-9.77-150.23-29.3V1196.4c43.45,31.49,94.17,47.26,152.11,47.26c34.03,0,61.91-10.73,83.63-32.15
					c21.76-21.42,32.61-52.29,32.61-92.59v-48.18c-38.41,38.41-83.78,57.64-136.08,57.64c-52.29,0-96.55-18.57-132.77-55.75
					s-54.33-82.52-54.33-136.08V646.44h137.96v273.08c0,24.57,8.5,45.37,25.53,62.37c17,17.03,38.1,25.53,63.29,25.53
					c26.49,0,49.14-8.5,68.06-25.53c18.88-17,28.34-37.8,28.34-62.37V646.44H4147.9z"/>
			</g>
		</g>
		<g>
			<path class="st0" d="M4884.24,408.77c-260.99,0-472.56,211.57-472.56,472.56s211.57,472.56,472.56,472.56
				s472.56-211.57,472.56-472.56S5145.23,408.77,4884.24,408.77z M4884.24,1177.9c-163.79,0-296.57-132.78-296.57-296.57
				s132.78-296.57,296.57-296.57c163.79,0,296.57,132.78,296.57,296.57S5048.04,1177.9,4884.24,1177.9z"/>
		</g>
		<g>
			<path d="M4618.92,1087.7c-11.73,0-21.97-4.36-30.67-13.07c-8.72-8.71-13.07-18.94-13.07-30.67c0-12.08,4.35-22.48,13.07-31.21
				c8.7-8.71,18.94-13.07,30.67-13.07c12.08,0,22.48,4.36,31.21,13.07c8.71,8.72,13.07,19.12,13.07,31.21
				c0,11.73-4.36,21.96-13.07,30.67C4641.4,1083.34,4631,1087.7,4618.92,1087.7z"/>
			<path d="M4852.02,1012.49l37.34,55.47c-15.29,13.16-35.56,19.73-60.81,19.73c-35.2,0-61.71-8.8-79.49-26.4
				c-17.78-17.6-26.67-41.69-26.67-72.29V873.79h-32v-58.14h32v-90.69h77.88v90.69h66.68v58.14h-66.68v115.76
				c0,10.67,2.49,18.77,7.47,24.28c4.98,5.51,11.73,8.26,20.27,8.26C4837.96,1022.09,4845.96,1018.89,4852.02,1012.49z"/>
			<path d="M5088.32,815.65h83.21l-107.22,266.71h-73.61l-106.68-266.71h83.21l60.28,181.37L5088.32,815.65z"/>
		</g>
	</g>
</g>
<g id="Calque_3">
</g>
<g id="Calque_2">
</g>
</svg>
