<?xml version="1.0" encoding="utf-8"?>
<!-- Generator: Adobe Illustrator 24.0.1, SVG Export Plug-In . SVG Version: 6.00 Build 0)  -->
<svg version="1.1" id="Calque_1" xmlns="http://www.w3.org/2000/svg" xmlns:xlink="http://www.w3.org/1999/xlink" x="0px" y="0px"
	 viewBox="0 0 306.4 197.3" style="enable-background:new 0 0 306.4 197.3;" xml:space="preserve">
<style type="text/css">
	.st0{fill:#44404D;}
	.st1{fill:#231F20;}
	.st2{fill:#10D26B;}
</style>
<g>
	<rect x="3" y="3" class="st0" width="300.4" height="191.3"/>
	<path class="st1" d="M306.4,197.3H0V0h306.4V197.3z M6,191.3h294.4V6H6V191.3z"/>
</g>
<g>
	<path class="st2" d="M75.1,88.1l-6.5,8.6v0.1L79,95.4v4.7l-10.4-1.2V99l6.6,8.3l-4.3,2.5l-4.1-9.6h-0.1l-4.5,9.7l-3.9-2.5l6.5-8.4
		v-0.1l-10.2,1.3v-4.7l10.1,1.3v-0.1l-6.5-8.4l4.2-2.4l4.3,9.6h0.1l4.2-9.6L75.1,88.1z"/>
	<path class="st2" d="M118.3,88.1l-6.5,8.6v0.1l10.4-1.4v4.7l-10.4-1.2V99l6.6,8.3l-4.3,2.5l-4.1-9.6h-0.1l-4.5,9.7l-3.9-2.5
		l6.5-8.4v-0.1l-10.2,1.3v-4.7l10.1,1.3v-0.1l-6.5-8.4l4.2-2.4l4.3,9.6h0.1l4.2-9.6L118.3,88.1z"/>
	<path class="st2" d="M161.5,88.1l-6.5,8.6v0.1l10.4-1.4v4.7L155,98.9V99l6.6,8.3l-4.3,2.5l-4.1-9.6H153l-4.5,9.7l-3.9-2.5l6.5-8.4
		v-0.1l-10.2,1.3v-4.7l10.1,1.3v-0.1l-6.5-8.4l4.2-2.4l4.3,9.6h0.1l4.2-9.6L161.5,88.1z"/>
	<path class="st2" d="M204.7,88.1l-6.5,8.6v0.1l10.4-1.4v4.7l-10.4-1.2V99l6.6,8.3l-4.3,2.5l-4.1-9.6h-0.1l-4.5,9.7l-3.9-2.5
		l6.5-8.4v-0.1l-10.2,1.3v-4.7l10.1,1.3v-0.1l-6.5-8.4l4.2-2.4l4.3,9.6h0.1l4.2-9.6L204.7,88.1z"/>
	<path class="st2" d="M247.9,88.1l-6.5,8.6v0.1l10.4-1.4v4.7l-10.4-1.2V99l6.6,8.3l-4.3,2.5l-4.1-9.6h-0.1l-4.5,9.7l-3.9-2.5
		l6.5-8.4v-0.1l-10.2,1.3v-4.7l10.1,1.3v-0.1l-6.5-8.4l4.2-2.4l4.3,9.6h0.1l4.2-9.6L247.9,88.1z"/>
</g>
<polygon style="fill:none;" points="-486.5,-216.5 -473.9,-216.5 -473.9,-216.5 -486.5,-216.5 "/>
</svg>
