<?xml version="1.0" encoding="utf-8"?>
<!-- Generator: Adobe Illustrator 24.0.1, SVG Export Plug-In . SVG Version: 6.00 Build 0)  -->
<svg version="1.1" id="Mode_Isolation" xmlns="http://www.w3.org/2000/svg" xmlns:xlink="http://www.w3.org/1999/xlink" x="0px"
	 y="0px" viewBox="0 0 379 379" style="enable-background:new 0 0 379 379;" xml:space="preserve">
<style type="text/css">
	.st0{clip-path:url(#SVGID_1_);fill:#FFFFFF;}
	.st1{clip-path:url(#SVGID_1_);fill:#FBD52F;}
	.st2{clip-path:url(#SVGID_1_);}
</style>
<g>
	<defs>
		<rect id="SVGID_3_" width="377.1" height="377.1"/>
	</defs>
	<clipPath id="SVGID_1_">
		<use xlink:href="#SVGID_3_"  style="overflow:visible;"/>
	</clipPath>
	<polygon class="st0" points="193.6,264 248.8,190.4 248.8,264 	"/>
	<path class="st0" d="M16.8,360.8c-4.8,0-8.8-4-8.8-8.8V148.8h364V352c0,4.8-4,8.8-8.8,8.8H16.8z"/>
	<path class="st1" d="M8,148.8v-88C8,56,12,52,16.8,52h65.6h107.2h107.2h66.4c4.8,0,8.8,4,8.8,8.8v88H8z"/>
	<path class="st2" d="M364,140.8H16v-80c0-0.8,0.8-0.8,0.8-0.8h57.6v25.6c0,4.8,3.2,8,8,8c4.8,0,8-3.2,8-8V60h91.2v25.6
		c0,4.8,3.2,8,8,8s8-3.2,8-8V60h91.2v25.6c0,4.8,3.2,8,8,8c4.8,0,8-3.2,8-8V60h58.4c0.8,0,0.8,0.8,0.8,0.8V140.8z M364,352
		c0,0.8-0.8,0.8-0.8,0.8H16.8c-0.8,0-0.8-0.8-0.8-0.8V156.8h348V352z M362.4,44h-57.6V18.4c0-4.8-3.2-8-8-8c-4.8,0-8,3.2-8,8V44
		h-91.2V18.4c0-4.8-3.2-8-8-8s-8,3.2-8,8V44H90.4V18.4c0-4.8-3.2-8-8-8s-8,3.2-8,8V44H16.8C7.2,44,0,52,0,60.8V352
		c0,9.6,8,16.8,16.8,16.8h345.6c9.6,0,16.8-8,16.8-16.8V60.8C380,51.2,372,44,362.4,44z"/>
	<path class="st2" d="M118.4,233.6c4,0,12.8-4.8,24.8-14.4v66.4c0,3.2,0.8,5.6,2.4,8c1.6,1.6,4,3.2,7.2,3.2c6.4,0,9.6-4.8,9.6-14.4
		V200c0-3.2-0.8-5.6-2.4-8c-1.6-1.6-4-3.2-6.4-3.2c-1.6,0-3.2,0-4.8,1.6c-0.8,0.8-2.4,3.2-5.6,7.2c-2.4,4-5.6,7.2-9.6,10.4
		c-4,3.2-8.8,6.4-13.6,8.8c-2.4,1.6-5.6,2.4-8,4.8c-1.6,1.6-2.4,3.2-2.4,5.6c0,2.4,0.8,4,2.4,5.6
		C114.4,232.8,116.8,233.6,118.4,233.6z"/>
	<path class="st2" d="M240.8,214.4V256h-31.2L240.8,214.4z M204.8,272.8h36v12.8c0,3.2,0.8,5.6,2.4,8c3.2,4,9.6,4,12.8,0
		c1.6-2.4,2.4-4.8,2.4-8v-12.8h4c2.4,0,5.6-0.8,8-1.6c1.6-1.6,3.2-4,2.4-6.4c0-2.4-0.8-5.6-3.2-6.4c-3.2-0.8-5.6-1.6-8.8-1.6h-3.2
		v-56c0-8-4-12.8-11.2-12.8c-2.4,0-4,0.8-5.6,2.4c-2.4,2.4-4,4.8-6.4,7.2c0,0-42.4,56.8-43.2,57.6s-0.8,1.6-1.6,3.2
		c-1.6,4-0.8,8.8,3.2,12C197.6,272,200.8,272.8,204.8,272.8z"/>
</g>
</svg>
