<?xml version="1.0" encoding="UTF-8" standalone="no"?>
<!-- Generator: Adobe Illustrator 24.0.1, SVG Export Plug-In . SVG Version: 6.00 Build 0)  -->

<svg
   xmlns:dc="http://purl.org/dc/elements/1.1/"
   xmlns:cc="http://creativecommons.org/ns#"
   xmlns:rdf="http://www.w3.org/1999/02/22-rdf-syntax-ns#"
   xmlns:svg="http://www.w3.org/2000/svg"
   xmlns="http://www.w3.org/2000/svg"
   xmlns:sodipodi="http://sodipodi.sourceforge.net/DTD/sodipodi-0.dtd"
   xmlns:inkscape="http://www.inkscape.org/namespaces/inkscape"
   version="1.1"
   id="TV_PICTO"
   x="0px"
   y="0px"
   viewBox="0 0 260.2 182.4"
   style="enable-background:new 0 0 260.2 182.4;"
   xml:space="preserve"
   sodipodi:docname="screen.svg"
   inkscape:version="0.92.4 5da689c313, 2019-01-14"><metadata
   id="metadata76"><rdf:RDF><cc:Work
       rdf:about=""><dc:format>image/svg+xml</dc:format><dc:type
         rdf:resource="http://purl.org/dc/dcmitype/StillImage" /></cc:Work></rdf:RDF></metadata><defs
   id="defs74" /><sodipodi:namedview
   pagecolor="#ffffff"
   bordercolor="#666666"
   borderopacity="1"
   objecttolerance="10"
   gridtolerance="10"
   guidetolerance="10"
   inkscape:pageopacity="0"
   inkscape:pageshadow="2"
   inkscape:window-width="1920"
   inkscape:window-height="1075"
   id="namedview72"
   showgrid="false"
   inkscape:zoom="4.649123"
   inkscape:cx="130.10001"
   inkscape:cy="91.199997"
   inkscape:window-x="0"
   inkscape:window-y="4"
   inkscape:window-maximized="0"
   inkscape:current-layer="TV_PICTO" />
<style
   type="text/css"
   id="style59">
	.st0{fill-rule:evenodd;clip-rule:evenodd;}
	.st1{fill:none;stroke:#000000;stroke-width:8;stroke-linejoin:round;}
	.st2{fill:#FBD52F;}
	.st3{fill:#FFFFFF;}
	.st4{font-family:'Orkney-Bold';}
	.st5{font-size:17.272px;}
</style>
<path
   class="st0"
   d="M102.7,175.5h54v5h-54V175.5z"
   id="path61" />
<g
   transform="translate(-426 -173)"
   id="g64">
	<path
   id="TV_1_"
   class="st1"
   d="M432.8,178h246.6v161.8H432.8V178z" />
</g>
<rect
   x="11"
   y="127"
   class="st2"
   width="238.1"
   height="36.3"
   id="rect66" />
<text
   id="TV_"
   transform="matrix(1 0 0 1 118.429 150.1379)"
   class="st3 st4 st5">TV</text>

<path
   class="st2"
   d="M140.2,88.5c0.4-0.4,0.4-1.1,0-1.6c-0.4-0.4-1.1-0.4-1.6,0l-8,8V68.4c0-0.6-0.5-1.1-1.1-1.1s-1.1,0.5-1.1,1.1  V95l-8-8c-0.4-0.4-1.2-0.4-1.6,0s-0.4,1.2,0,1.6l10,10c0.4,0.4,1.1,0.4,1.6,0L140.2,88.5z"
   id="path69" />
<path
   style="fill:#ffffff;fill-opacity:1;stroke-width:0.21509433"
   d="M 10.937746,68.045092 V 9.1630186 H 130.10001 249.26227 V 68.045092 126.92717 H 130.10001 10.937746 Z M 135.31953,93.652563 c 2.7486,-2.834038 5.08336,-5.33562 5.18835,-5.559072 0.28585,-0.608347 -0.3717,-1.496513 -1.10793,-1.496513 -0.47158,0 -1.36396,0.778665 -4.61957,4.030896 l -4.03509,4.030896 V 81.426678 c 0,-14.394435 0.0171,-14.18819 -1.17985,-14.18819 -1.23036,0 -1.18619,-0.526895 -1.18619,14.150562 V 94.8636 l -4.15312,-4.133311 c -4.22804,-4.207867 -4.676,-4.522518 -5.40321,-3.795305 -0.86546,0.865462 -0.59031,1.242512 4.87803,6.684364 2.86882,2.854925 5.36123,5.234043 5.53868,5.28693 0.17745,0.05289 0.4936,0.05181 0.70254,-0.0024 0.20894,-0.0542 2.62875,-2.417297 5.37736,-5.251335 z"
   id="path78"
   inkscape:connector-curvature="0" /></svg>