<?xml version="1.0" encoding="utf-8"?>
<svg version="1.1" id="Capa_1" xmlns="http://www.w3.org/2000/svg" xmlns:xlink="http://www.w3.org/1999/xlink" x="0px" y="0px"
width="379.3px" height="379.3px" viewBox="0 0 379.3 379.3" style="enable-background:new 0 0 379.3 379.3;" xml:space="preserve"
>
<g fill="#ffffff">
<path d="M362.4,44h-57.6V18.4c0-4.8-3.2-8-8-8s-8,3.2-8,8V44h-91.2V18.4c0-4.8-3.2-8-8-8s-8,3.2-8,8V44H90.4V18.4c0-4.8-3.2-8-8-8
s-8,3.2-8,8V44H16.8C7.2,44,0,52,0,60.8l0,0V352c0,9.6,8,16.8,16.8,16.8h345.6c9.6,0,16.8-8,16.8-16.8V60.8
C380,51.2,372,44,362.4,44z M364,352c0,0.8-0.8,0.8-0.8,0.8H16.8c-0.8,0-0.8-0.8-0.8-0.8V156.8h348V352z M364,140.8H16v-80
c0-0.8,0.8-0.8,0.8-0.8l0,0h57.6v25.6c0,4.8,3.2,8,8,8s8-3.2,8-8V60h91.2v25.6c0,4.8,3.2,8,8,8s8-3.2,8-8V60h91.2v25.6
c0,4.8,3.2,8,8,8s8-3.2,8-8V60h58.4c0.8,0,0.8,0.8,0.8,0.8L364,140.8L364,140.8z"/>
<path d="M118.4,233.6c4,0,12.8-4.8,24.8-14.4v66.4c0,3.2,0.8,5.6,2.4,8c1.6,1.6,4,3.2,7.2,3.2c6.4,0,9.6-4.8,9.6-14.4V200
c0-3.2-0.8-5.6-2.4-8c-1.6-1.6-4-3.2-6.4-3.2c-1.6,0-3.2,0-4.8,1.6c-0.8,0.8-2.4,3.2-5.6,7.2c-2.4,4-5.6,7.2-9.6,10.4
s-8.8,6.4-13.6,8.8c-2.4,1.6-5.6,2.4-8,4.8c-1.6,1.6-2.4,3.2-2.4,5.6s0.8,4,2.4,5.6C114.4,232.8,116.8,233.6,118.4,233.6z"/>
<path d="M204.8,272.8h36v12.8c0,3.2,0.8,5.6,2.4,8c3.2,4,9.6,4,12.8,0l0,0c1.6-2.4,2.4-4.8,2.4-8v-12.8h4c2.4,0,5.6-0.8,8-1.6
c1.6-1.6,3.2-4,2.4-6.4c0-2.4-0.8-5.6-3.2-6.4c-3.2-0.8-5.6-1.6-8.8-1.6h-3.2v-56c0-8-4-12.8-11.2-12.8c-2.4,0-4,0.8-5.6,2.4
c-2.4,2.4-4,4.8-6.4,7.2c0,0-42.4,56.8-43.2,57.6c-0.8,0.8-0.8,1.6-1.6,3.2c-1.6,4-0.8,8.8,3.2,12
C197.6,272,200.8,272.8,204.8,272.8z M240.8,214.4V256h-31.2L240.8,214.4z"/>
</g>
</svg>
